<?xml version="1.0" encoding="UTF-8" standalone="no"?>

<svg width="100px" height="123px" viewBox="47 0 100 123" version="1.1" xmlns="http://www.w3.org/2000/svg" xmlns:xlink="http://www.w3.org/1999/xlink">
    <!-- Generator: Sketch 39.1 (31720) - http://www.bohemiancoding.com/sketch -->
    <desc>Created with Sketch.</desc>
    <defs></defs>
    <g id="list2" stroke="none" stroke-width="1" fill="none" fill-rule="evenodd" transform="translate(47.000000, 0.000000)">
        <path d="M99.8344498,4.17511962 C99.8344498,1.87870813 97.9555024,0 95.6593301,0 L4.34066986,0 C2.04449761,0 0.165550239,1.87870813 0.165550239,4.17511962 L0.165550239,118.313158 C0.165550239,120.60933 2.04425837,122.488278 4.34066986,122.488278 L95.6593301,122.488278 C97.9555024,122.488278 99.8344498,120.609569 99.8344498,118.313158 L99.8344498,4.17511962 L99.8344498,4.17511962 Z" id="Shape" fill="#E0E0D3"></path>
        <path d="M88.1318182,19.7657895 L45.8248804,19.7657895 C44.6720096,19.7657895 43.7373206,18.8311005 43.7373206,17.6782297 C43.7373206,16.5251196 44.6720096,15.5906699 45.8248804,15.5906699 L88.1318182,15.5906699 C89.284689,15.5906699 90.219378,16.5251196 90.219378,17.6782297 C90.219378,18.8311005 89.284689,19.7657895 88.1318182,19.7657895 L88.1318182,19.7657895 Z" id="Shape" fill="#333E48"></path>
        <path d="M75.6066986,29.2291866 L45.8248804,29.2291866 C44.6720096,29.2291866 43.7373206,28.2944976 43.7373206,27.1416268 C43.7373206,25.9885167 44.6720096,25.054067 45.8248804,25.054067 L75.6066986,25.054067 C76.7595694,25.054067 77.6942584,25.9885167 77.6942584,27.1416268 C77.6942584,28.2944976 76.7595694,29.2291866 75.6066986,29.2291866 L75.6066986,29.2291866 Z" id="Shape" fill="#5C6670"></path>
        <ellipse id="Oval" fill="#0055B8" cx="23.8789474" cy="22.4088517" rx="14.1944976" ry="14.1944976"></ellipse>
        <path d="M21.1935407,29.4373206 C20.6399522,29.4373206 20.1088517,29.2174641 19.7174641,28.8258373 L15.2064593,24.3143541 C14.3911483,23.4990431 14.3911483,22.1772727 15.2064593,21.3624402 C16.0217703,20.5473684 17.3435407,20.5471292 18.1583732,21.3626794 L21.1933014,24.3976077 L29.0401914,16.5504785 C29.8555024,15.7354067 31.1772727,15.7354067 31.9921053,16.5504785 C32.8074163,17.3660287 32.8074163,18.6875598 31.9921053,19.5023923 L22.669378,28.8258373 C22.2782297,29.2174641 21.7471292,29.4373206 21.1935407,29.4373206 L21.1935407,29.4373206 Z" id="Shape" fill="#FFFFFF"></path>
        <path d="M88.1318182,58.5997608 L45.8248804,58.5997608 C44.6720096,58.5997608 43.7373206,57.665311 43.7373206,56.512201 C43.7373206,55.3590909 44.6720096,54.4246411 45.8248804,54.4246411 L88.1318182,54.4246411 C89.284689,54.4246411 90.219378,55.3590909 90.219378,56.512201 C90.219378,57.6655502 89.284689,58.5997608 88.1318182,58.5997608 L88.1318182,58.5997608 Z" id="Shape" fill="#333E48"></path>
        <path d="M75.6066986,68.0631579 L45.8248804,68.0631579 C44.6720096,68.0631579 43.7373206,67.1287081 43.7373206,65.9755981 C43.7373206,64.822488 44.6720096,63.8880383 45.8248804,63.8880383 L75.6066986,63.8880383 C76.7595694,63.8880383 77.6942584,64.822488 77.6942584,65.9755981 C77.6942584,67.1289474 76.7595694,68.0631579 75.6066986,68.0631579 L75.6066986,68.0631579 Z" id="Shape" fill="#5C6670"></path>
        <ellipse id="Oval" fill="#D49000" cx="23.8789474" cy="61.2447368" rx="14.1944976" ry="14.1944976"></ellipse>
        <path d="M88.1318182,97.4339713 L45.8248804,97.4339713 C44.6720096,97.4339713 43.7373206,96.4995215 43.7373206,95.3464115 C43.7373206,94.1935407 44.6720096,93.2588517 45.8248804,93.2588517 L88.1318182,93.2588517 C89.284689,93.2588517 90.219378,94.1935407 90.219378,95.3464115 C90.219378,96.4995215 89.284689,97.4339713 88.1318182,97.4339713 L88.1318182,97.4339713 Z" id="Shape" fill="#333E48"></path>
        <path d="M75.6066986,106.897368 L45.8248804,106.897368 C44.6720096,106.897368 43.7373206,105.962919 43.7373206,104.809809 C43.7373206,103.656938 44.6720096,102.722249 45.8248804,102.722249 L75.6066986,102.722249 C76.7595694,102.722249 77.6942584,103.656938 77.6942584,104.809809 C77.6942584,105.962919 76.7595694,106.897368 75.6066986,106.897368 L75.6066986,106.897368 Z" id="Shape" fill="#5C6670"></path>
        <ellipse id="Oval" fill="#D49000" cx="23.8789474" cy="100.07823" rx="14.1944976" ry="14.1944976"></ellipse>
    </g>
</svg>